<svg width="77" height="74" viewBox="0 0 77 74" fill="none" xmlns="http://www.w3.org/2000/svg">
<g clip-path="url(#clip0_6436_2285)">
<path fill-rule="evenodd" clip-rule="evenodd" d="M40.7683 50.3932C40.1667 50.9947 39.3508 51.3325 38.5 51.3325C37.6493 51.3325 36.8334 50.9947 36.2317 50.3932L18.0822 32.2437C17.7758 31.9477 17.5313 31.5937 17.3632 31.2022C17.1951 30.8108 17.1065 30.3898 17.1028 29.9638C17.0991 29.5378 17.1803 29.1153 17.3416 28.721C17.503 28.3268 17.7412 27.9685 18.0424 27.6673C18.3437 27.3661 18.7019 27.1278 19.0962 26.9665C19.4905 26.8052 19.9129 26.724 20.3389 26.7277C20.7649 26.7314 21.1859 26.8199 21.5774 26.9881C21.9688 27.1562 22.3228 27.4006 22.6188 27.7071L38.5 43.5883L54.3813 27.7071C54.9864 27.1226 55.7968 26.7993 56.638 26.8066C57.4792 26.8139 58.2839 27.1513 58.8788 27.7461C59.4736 28.341 59.811 29.1457 59.8184 29.9869C59.8257 30.8281 59.5023 31.6386 58.9179 32.2437L40.7683 50.3932Z" fill="#C7C7C7"/>
</g>
<g clip-path="url(#clip1_6436_2285)">
<path fill-rule="evenodd" clip-rule="evenodd" d="M40.7683 67.8931C40.1667 68.4945 39.3508 68.8324 38.5 68.8324C37.6493 68.8324 36.8334 68.4945 36.2317 67.8931L18.0822 49.7435C17.7758 49.4476 17.5313 49.0935 17.3632 48.7021C17.1951 48.3107 17.1065 47.8897 17.1028 47.4637C17.0991 47.0377 17.1803 46.6152 17.3416 46.2209C17.503 45.8266 17.7412 45.4684 18.0424 45.1672C18.3437 44.8659 18.7019 44.6277 19.0962 44.4664C19.4905 44.3051 19.9129 44.2239 20.3389 44.2276C20.7649 44.2313 21.1859 44.3198 21.5774 44.488C21.9688 44.6561 22.3228 44.9005 22.6188 45.2069L38.5 61.0882L54.3813 45.2069C54.9864 44.6225 55.7968 44.2991 56.638 44.3064C57.4792 44.3138 58.2839 44.6512 58.8788 45.246C59.4736 45.8409 59.811 46.6456 59.8184 47.4868C59.8257 48.328 59.5023 49.1384 58.9179 49.7435L40.7683 67.8931Z" fill="#C7C7C7"/>
</g>
<defs>
<clipPath id="clip0_6436_2285">
<rect width="77" height="77" fill="white"/>
</clipPath>
<clipPath id="clip1_6436_2285">
<rect width="77" height="77" fill="white" transform="translate(0 22.75)"/>
</clipPath>
</defs>
</svg>
