<svg width="27" height="28" viewBox="0 0 27 28" fill="none" xmlns="http://www.w3.org/2000/svg">
<path d="M13.5 15.866L8.00216 21.3638C7.79646 21.5695 7.53466 21.6724 7.21676 21.6724C6.89886 21.6724 6.63705 21.5695 6.43135 21.3638C6.22565 21.1581 6.1228 20.8963 6.1228 20.5784C6.1228 20.2605 6.22565 19.9987 6.43135 19.793L11.9292 14.2952L6.43135 8.79738C6.22565 8.59168 6.1228 8.32988 6.1228 8.01198C6.1228 7.69407 6.22565 7.43227 6.43135 7.22657C6.63705 7.02087 6.89886 6.91802 7.21676 6.91802C7.53466 6.91802 7.79646 7.02087 8.00216 7.22657L13.5 12.7244L18.9978 7.22657C19.2035 7.02087 19.4653 6.91802 19.7832 6.91802C20.1011 6.91802 20.3629 7.02087 20.5686 7.22657C20.7743 7.43227 20.8772 7.69407 20.8772 8.01198C20.8772 8.32988 20.7743 8.59168 20.5686 8.79738L15.0708 14.2952L20.5686 19.793C20.7743 19.9987 20.8772 20.2605 20.8772 20.5784C20.8772 20.8963 20.7743 21.1581 20.5686 21.3638C20.3629 21.5695 20.1011 21.6724 19.7832 21.6724C19.4653 21.6724 19.2035 21.5695 18.9978 21.3638L13.5 15.866Z" fill="#616161"/>
</svg>
