<svg width="45" height="30" viewBox="0 0 45 30" fill="none" xmlns="http://www.w3.org/2000/svg">
<path d="M6.76665 3.045C6.85665 3.495 6.90165 3.915 6.90165 4.305C6.93165 4.665 6.94665 5.085 6.94665 5.565C6.91665 5.805 6.90165 6.03 6.90165 6.24C6.90165 6.45 6.90165 6.645 6.90165 6.825C7.98165 6.765 9.15165 6.66 10.4117 6.51C11.7017 6.36 12.9167 6.195 14.0567 6.015C14.3567 5.985 14.5967 6.075 14.7767 6.285C14.9867 6.465 15.1067 6.675 15.1367 6.915C15.1667 7.185 15.1067 7.455 14.9567 7.725C14.8367 7.965 14.5967 8.115 14.2367 8.175C13.6967 8.325 13.1117 8.445 12.4817 8.535C11.8517 8.595 11.2067 8.67 10.5467 8.76C9.88665 8.82 9.22665 8.88 8.56665 8.94C7.93665 8.97 7.35165 9 6.81165 9.03C6.75165 9.75 6.70665 10.395 6.67665 10.965C6.67665 11.505 6.70665 12 6.76665 12.45C7.36665 12.48 7.99665 12.465 8.65665 12.405C9.34665 12.345 10.0367 12.27 10.7267 12.18C11.4467 12.09 12.1517 12 12.8417 11.91C13.5617 11.82 14.2667 11.745 14.9567 11.685C15.4367 11.655 15.7967 11.73 16.0367 11.91C16.2767 12.09 16.4267 12.315 16.4867 12.585C16.5167 12.825 16.4567 13.065 16.3067 13.305C16.1567 13.545 15.9317 13.695 15.6317 13.755C14.8817 13.875 14.1617 13.98 13.4717 14.07C12.8117 14.13 12.1517 14.205 11.4917 14.295C10.8317 14.385 10.1567 14.475 9.46665 14.565C8.80665 14.625 8.11665 14.7 7.39665 14.79C6.40665 14.94 5.61165 14.82 5.01165 14.43C4.44165 14.04 4.18665 13.32 4.24665 12.27C4.24665 11.67 4.26165 10.965 4.29165 10.155C4.35165 9.345 4.38165 8.505 4.38165 7.635C4.41165 6.795 4.42665 5.97 4.42665 5.16C4.45665 4.32 4.45665 3.6 4.42665 3C4.39665 2.55 4.48665 2.1 4.69665 1.65C4.93665 1.2 5.49165 0.944999 6.36165 0.884999C7.53165 0.824998 8.82165 0.749998 10.2317 0.66C11.6417 0.569999 12.8417 0.479998 13.8317 0.389998C14.1017 0.359998 14.3267 0.434998 14.5067 0.614997C14.6867 0.764999 14.8067 0.959999 14.8667 1.2C14.9267 1.44 14.9117 1.68 14.8217 1.92C14.7317 2.16 14.5367 2.325 14.2367 2.415C13.6967 2.595 13.0967 2.73 12.4367 2.82C11.8067 2.88 11.1617 2.925 10.5017 2.955C9.81165 2.985 9.13665 3 8.47665 3C7.84665 3 7.27665 3.015 6.76665 3.045ZM1.63665 19.74C2.80665 19.53 4.17165 19.35 5.73165 19.2C7.29165 19.05 8.88165 18.915 10.5017 18.795C12.1217 18.705 13.6967 18.645 15.2267 18.615C16.7567 18.555 18.0917 18.525 19.2317 18.525C19.6517 18.555 19.9517 18.69 20.1317 18.93C20.3417 19.17 20.4467 19.425 20.4467 19.695C20.4167 19.965 20.2817 20.22 20.0417 20.46C19.8017 20.67 19.4567 20.775 19.0067 20.775C18.0467 20.775 16.9817 20.805 15.8117 20.865C14.6417 20.895 13.4267 20.94 12.1667 21C12.0167 21.15 11.9117 21.345 11.8517 21.585C11.7917 21.825 11.7617 22.035 11.7617 22.215C11.6717 23.355 11.5967 24.375 11.5367 25.275C11.5067 26.145 11.4467 27.21 11.3567 28.47C11.3267 28.83 11.1917 29.115 10.9517 29.325C10.7117 29.535 10.4417 29.64 10.1417 29.64C9.87165 29.67 9.61665 29.595 9.37665 29.415C9.13665 29.235 9.01665 28.935 9.01665 28.515C9.01665 27.885 9.01665 27.255 9.01665 26.625C9.04665 25.995 9.07665 25.365 9.10665 24.735C9.13665 24.135 9.15165 23.55 9.15165 22.98C9.15165 22.38 9.15165 21.78 9.15165 21.18C7.77165 21.27 6.43665 21.375 5.14665 21.495C3.88665 21.615 2.77665 21.72 1.81665 21.81C1.36665 21.87 1.03665 21.81 0.826653 21.63C0.646653 21.45 0.556653 21.225 0.556653 20.955C0.556653 20.715 0.646653 20.475 0.826653 20.235C1.00665 19.965 1.27665 19.8 1.63665 19.74ZM32.486 11.505C31.856 11.445 31.331 11.25 30.911 10.92C30.521 10.56 30.221 10.17 30.011 9.75C29.771 9.3 29.636 8.85 29.606 8.4C29.576 7.92 29.606 7.515 29.696 7.185C29.606 6.225 29.801 5.445 30.281 4.845C30.791 4.245 31.286 3.81 31.766 3.54C32.276 3.09 32.801 2.76 33.341 2.55C33.911 2.34 34.541 2.235 35.231 2.235C36.281 2.235 37.166 2.55 37.886 3.18C38.636 3.81 38.966 4.62 38.876 5.61C38.786 6.45 38.516 7.245 38.066 7.995C37.646 8.745 37.121 9.39 36.491 9.93C35.861 10.5 35.186 10.935 34.466 11.235C33.746 11.505 33.086 11.595 32.486 11.505ZM31.991 8.175C31.991 8.355 32.051 8.55 32.171 8.76C32.321 8.94 32.546 9.03 32.846 9.03C33.536 9.06 34.256 8.745 35.006 8.085C35.786 7.395 36.221 6.66 36.311 5.88C36.341 5.46 36.221 5.145 35.951 4.935C35.681 4.695 35.396 4.575 35.096 4.575C34.676 4.575 34.271 4.725 33.881 5.025C33.521 5.295 33.206 5.625 32.936 6.015C32.636 6.405 32.396 6.81 32.216 7.23C32.036 7.65 31.961 7.965 31.991 8.175ZM39.866 17.31C39.776 17.4 39.701 17.49 39.641 17.58C39.581 17.67 39.536 17.775 39.506 17.895C39.476 18.015 39.446 18.135 39.416 18.255C39.416 18.345 39.416 18.435 39.416 18.525C39.386 19.095 39.356 19.725 39.326 20.415C39.296 21.105 39.266 21.81 39.236 22.53C39.206 23.28 39.161 24.03 39.101 24.78C39.071 25.5 39.041 26.175 39.011 26.805C38.951 27.165 38.801 27.465 38.561 27.705C38.321 27.915 38.051 28.035 37.751 28.065C37.481 28.095 37.226 28.035 36.986 27.885C36.776 27.705 36.671 27.405 36.671 26.985C36.671 26.055 36.671 25.155 36.671 24.285C36.701 23.385 36.716 22.53 36.716 21.72C36.746 20.91 36.761 20.145 36.761 19.425C36.761 18.705 36.761 18.045 36.761 17.445C36.041 17.475 35.336 17.52 34.646 17.58C33.956 17.61 33.281 17.64 32.621 17.67V17.76C32.531 18.9 32.456 20.175 32.396 21.585C32.336 22.965 32.276 24.51 32.216 26.22C32.186 26.58 32.051 26.88 31.811 27.12C31.571 27.33 31.301 27.45 31.001 27.48C30.701 27.51 30.431 27.45 30.191 27.3C29.981 27.12 29.891 26.82 29.921 26.4C29.951 25.2 29.966 23.79 29.966 22.17C29.966 20.55 29.951 19.11 29.921 17.85C29.531 17.91 29.156 17.955 28.796 17.985C28.466 18.015 28.136 18.045 27.806 18.075C27.446 18.105 27.116 18.135 26.816 18.165C26.516 18.195 26.231 18.225 25.961 18.255C25.511 18.315 25.181 18.255 24.971 18.075C24.761 17.895 24.656 17.67 24.656 17.4C24.656 17.13 24.746 16.875 24.926 16.635C25.106 16.395 25.376 16.245 25.736 16.185C26.906 15.975 28.271 15.795 29.831 15.645C31.391 15.495 32.981 15.36 34.601 15.24C36.221 15.12 37.796 15.045 39.326 15.015C40.856 14.955 42.191 14.925 43.331 14.925C43.781 14.955 44.096 15.09 44.276 15.33C44.486 15.57 44.576 15.84 44.546 16.14C44.516 16.41 44.381 16.665 44.141 16.905C43.901 17.115 43.571 17.22 43.151 17.22C42.881 17.22 42.611 17.235 42.341 17.265C42.101 17.265 41.846 17.265 41.576 17.265C41.306 17.265 41.021 17.28 40.721 17.31C40.451 17.31 40.166 17.31 39.866 17.31Z" fill="black"/>
</svg>
